<svg height='100px' width='100px'  fill="#f5d327" xmlns="http://www.w3.org/2000/svg" xmlns:xlink="http://www.w3.org/1999/xlink" xml:space="preserve" version="1.1" style="shape-rendering:geometricPrecision;text-rendering:geometricPrecision;image-rendering:optimizeQuality;" viewBox="0 0 266 266" x="0px" y="0px" fill-rule="evenodd" clip-rule="evenodd"><defs><style type="text/css">
   
    .fil0 {fill:#f5d327}
   
  </style></defs><g><path class="fil0" d="M148 1c-21,12 -2,32 -12,42 4,-17 -14,-27 -2,-43 -19,14 2,32 -7,43 3,-17 -17,-25 -6,-42 -18,16 5,31 -2,43 0,-17 -20,-23 -11,-42 -16,18 8,31 2,44 -2,-17 -22,-21 -15,-40 -14,19 11,29 6,43 -3,-17 -23,-19 -18,-39 -13,21 14,29 10,43 -5,-17 -25,-17 -22,-37 -10,21 16,27 14,41 -6,-16 -27,-14 -26,-35 -8,23 20,26 19,40 -8,-15 -28,-11 -29,-32 -6,24 21,24 22,38 -10,-15 -29,-8 -32,-29 -3,24 24,21 26,35 -11,-13 -30,-5 -35,-25 -1,24 26,19 29,33 -12,-13 -30,-3 -37,-22 2,24 28,16 33,29 -14,-11 -31,1 -40,-18 4,24 29,13 36,26 -15,-10 -31,4 -41,-14 6,24 30,10 37,23 -15,-9 -29,6 -42,-10 9,22 31,7 40,18 -16,-6 -29,10 -43,-5 11,21 32,4 42,14 -17,-5 -28,12 -44,-1 13,20 32,1 43,10 -17,-3 -26,15 -43,3 15,19 32,-2 43,6 -17,-2 -24,18 -42,7 17,18 31,-5 44,2 -18,0 -23,20 -42,11 18,16 31,-8 44,-2 -18,1 -21,22 -40,15 19,14 29,-11 43,-7 -17,4 -19,24 -39,20 21,11 28,-15 43,-12 -17,5 -16,26 -37,24 22,9 27,-18 41,-16 -16,7 -13,27 -34,27 23,7 25,-20 39,-20 -15,9 -10,29 -31,30 24,5 23,-22 37,-23 -14,10 -7,29 -27,33 24,2 20,-25 34,-27 -13,11 -5,30 -24,35 24,1 17,-26 31,-30 -12,13 -1,30 -20,38 24,-2 15,-28 28,-33 -11,13 1,30 -17,39 24,-4 12,-29 25,-36 -9,15 5,31 -13,42 23,-7 10,-31 22,-39 -8,16 7,30 -9,43 22,-9 6,-31 17,-40 -6,16 11,28 -4,43 21,-12 3,-32 13,-42 -4,17 13,27 0,43 20,-13 0,-32 9,-43 -3,17 16,26 4,43 19,-15 -3,-32 5,-43 -1,17 18,24 9,42 17,-17 -7,-31 0,-44 1,18 21,22 13,41 15,-18 -10,-30 -4,-43 2,17 22,20 16,40 14,-21 -12,-30 -8,-43 4,17 25,17 21,38 11,-22 -16,-28 -13,-42 6,16 26,15 24,35 9,-22 -18,-26 -16,-40 7,16 27,12 27,33 7,-23 -20,-24 -20,-39 9,15 29,10 31,31 4,-24 -23,-23 -25,-37 11,14 30,7 34,27 2,-24 -25,-20 -28,-34 12,13 30,4 36,24 0,-24 -26,-17 -31,-31 13,12 31,1 39,20 -3,-24 -29,-15 -34,-28 14,11 30,-2 40,16 -5,-23 -30,-11 -37,-24 15,9 30,-5 42,12 -8,-23 -31,-9 -39,-21 16,8 29,-8 43,8 -10,-22 -32,-5 -41,-16 16,5 28,-11 43,3 -12,-21 -32,-2 -42,-12 17,4 27,-14 43,-1 -14,-20 -32,1 -43,-8 17,2 26,-17 43,-6 -16,-18 -32,5 -44,-3 18,1 24,-19 42,-10 -17,-16 -31,7 -43,1 17,-1 21,-21 41,-14 -20,-14 -31,11 -44,5 17,-2 20,-23 39,-17 -20,-13 -28,13 -42,9 17,-4 17,-25 37,-21 -21,-11 -27,16 -42,13 17,-6 15,-26 36,-25 -23,-8 -26,19 -41,18 16,-8 12,-28 33,-29 -23,-6 -24,21 -38,22 15,-10 9,-29 29,-32 -24,-4 -21,24 -36,25 14,-10 7,-29 27,-34 -24,-1 -19,25 -33,29 12,-12 3,-31 22,-37 -24,1 -16,27 -30,32 12,-13 0,-31 19,-39 -24,3 -14,29 -27,35 10,-15 -3,-31 15,-41 -23,6 -11,30 -23,37 8,-15 -6,-30 11,-42 -23,8 -8,31 -20,40 7,-16 -9,-29 7,-43 -22,10 -5,31 -16,41 6,-17 -11,-28 3,-43z"></path></g></svg>