<svg height='100px' width='100px'  fill="#ec5d57" xmlns="http://www.w3.org/2000/svg" data-name="Layer 1" viewBox="0 0 100 100" x="0px" y="0px"><title>New</title><path d="M49.6,28c3.25,8.26,4,16-.69,23.48-2.59,4.15-5.47,8.12-8.23,12.16S35.22,72,34.35,77.06A15.84,15.84,0,0,0,37,89.52c-2.19-7.86,2.1-13.26,7-18.29,2.93-3,6.28-5.61,9.34-8.5,6.14-5.8,10.84-12.44,12.07-21.08A24,24,0,0,0,62.87,27c-5.7-11-15-17.7-26.36-21.9-.11,0,9.63,9,3.72,21.27-1.62,4.57-4.15,8.83-6.55,13.07C30.58,44.85,26.83,50,24,55.54,17.19,69.19,20.6,80.89,32.4,90.85a12.56,12.56,0,0,0,4.81,2.33l-1.69-1.84c-7.4-7.92-8.37-16.35-2.68-25.52,2-3.31,4.59-6.31,6.89-9.46,2-2.79,4.15-5.5,6-8.41a26.08,26.08,0,0,0,3.6-18.07A4.78,4.78,0,0,1,49.6,28Z"></path><path d="M38.06,88.3a11.42,11.42,0,0,1,1.12-5.68A20.84,20.84,0,0,1,43.4,76.7,54.82,54.82,0,0,1,51,70.76c3.61-2.45,7.54-4.43,11-7,6.81-5,11.77-11,12.95-18.85a49.44,49.44,0,0,0-6-11.61C71.84,44.66,67.07,53.43,59,60.92c-3.19,2.95-6.88,5.36-10.17,8.2A55.23,55.23,0,0,0,42,75.87a20.73,20.73,0,0,0-3.53,6.37A11.47,11.47,0,0,0,38.06,88.3Z"></path><path d="M38.77,87.37c.49,4.64,4.13,8.47,9.5,9.28a24.26,24.26,0,0,0,5.48.21,11.89,11.89,0,0,1,0-4.57,20.92,20.92,0,0,1,2.6-6.79,55.19,55.19,0,0,1,5.83-7.65c2.87-3.26,6.19-6.17,8.93-9.54,4.65-5.73,7.75-11.82,7.94-18.5h0c-.05-.23-.11-.46-.16-.69C76.94,56.55,71.53,61.86,64.43,66,60.78,68.18,56.77,69.7,53,71.7a54.28,54.28,0,0,0-7.91,5A20.34,20.34,0,0,0,40.43,82,11.16,11.16,0,0,0,38.77,87.37Z"></path><path d="M54.41,96a24.13,24.13,0,0,0,13.33-6.19,31.42,31.42,0,0,0,9.45-14.43c-2.24-4.67-.94-7.42.43-10.33A15.48,15.48,0,0,0,79.47,59c-.06-1.34-.17-2.69-.34-4-1.11,4.56-3.57,9.14-7.42,13.88-1.57,1.94-3.35,3.75-5.07,5.49C65.34,75.62,64,77,62.76,78.38A54.94,54.94,0,0,0,57,85.91a20.2,20.2,0,0,0-2.5,6.53A11,11,0,0,0,54.41,96Z"></path></svg>