<svg id="af005ec2-33c6-4dc4-9bc5-1b3873ce6d05" data-name="Layer 1" xmlns="http://www.w3.org/2000/svg" viewBox="0 0 271.23 257.63"><circle cx="645.44" cy="334.05" r="75" transform="translate(-588.48 78.61) rotate(-22.5)" style="fill:#fff"/><path d="M645.44,260.55a73.5,73.5,0,1,1-73.5,73.5,73.58,73.58,0,0,1,73.5-73.5m0-3a76.5,76.5,0,1,0,76.5,76.5,76.5,76.5,0,0,0-76.5-76.5Z" transform="translate(-509.77 -193.82)" style="fill:#646e78"/><path d="M597.18,293.75h2.09v14.43h6.91v1.75h-9Z" transform="translate(-509.77 -193.82)" style="fill:#eab464"/><path d="M618.61,304c0,4.29-3,6.17-5.78,6.17-3.15,0-5.57-2.31-5.57-6,0-3.89,2.54-6.17,5.76-6.17S618.61,300.48,618.61,304Zm-9.21.12c0,2.54,1.46,4.46,3.52,4.46s3.53-1.89,3.53-4.51c0-2-1-4.46-3.48-4.46S609.4,301.94,609.4,304.15Z" transform="translate(-509.77 -193.82)" style="fill:#eab464"/><path d="M621.28,301.46c0-1.2,0-2.18-.1-3.15h1.87l.12,1.93h.05a4.27,4.27,0,0,1,3.84-2.19c1.61,0,4.1,1,4.1,4.95v6.93h-2.11v-6.69c0-1.88-.69-3.44-2.69-3.44a3,3,0,0,0-2.83,2.16,3.28,3.28,0,0,0-.14,1v7h-2.11Z" transform="translate(-509.77 -193.82)" style="fill:#eab464"/><path d="M644.6,298.31c0,.85-.09,1.78-.09,3.2v6.74c0,2.67-.53,4.3-1.66,5.31a6.19,6.19,0,0,1-4.22,1.39,7.58,7.58,0,0,1-3.87-1l.53-1.61a6.56,6.56,0,0,0,3.41.91c2.16,0,3.74-1.13,3.74-4.05v-1.3h0a4.15,4.15,0,0,1-3.7,1.94c-2.88,0-4.94-2.44-4.94-5.66,0-3.94,2.56-6.17,5.23-6.17a3.86,3.86,0,0,1,3.62,2h0l.1-1.76Zm-2.18,4.59a2.91,2.91,0,0,0-.12-1,3,3,0,0,0-2.95-2.23c-2,0-3.46,1.7-3.46,4.39,0,2.28,1.15,4.18,3.43,4.18a3.09,3.09,0,0,0,2.93-2.16,3.69,3.69,0,0,0,.17-1.13Z" transform="translate(-509.77 -193.82)" style="fill:#eab464"/><path d="M655.26,295.53h-4.92v-1.78h12v1.78h-5v14.4h-2.11Z" transform="translate(-509.77 -193.82)" style="fill:#eab464"/><path d="M663.52,304.51a3.72,3.72,0,0,0,4,4,7.63,7.63,0,0,0,3.22-.6l.36,1.51a9.39,9.39,0,0,1-3.87.72c-3.57,0-5.71-2.35-5.71-5.85s2.06-6.27,5.45-6.27c3.79,0,4.8,3.34,4.8,5.47a9,9,0,0,1-.07,1Zm6.19-1.51c0-1.35-.55-3.44-2.93-3.44-2.14,0-3.07,2-3.24,3.44Z" transform="translate(-509.77 -193.82)" style="fill:#eab464"/><path d="M674.36,301.94c0-1.37,0-2.54-.09-3.63h1.85l.07,2.29h.09a3.49,3.49,0,0,1,3.22-2.55,2.67,2.67,0,0,1,.6.07v2a3,3,0,0,0-.72-.08,3,3,0,0,0-2.83,2.72,5.58,5.58,0,0,0-.1,1v6.19h-2.09Z" transform="translate(-509.77 -193.82)" style="fill:#eab464"/><path d="M682.31,301.46c0-1.2,0-2.18-.1-3.15h1.85l.09,1.88h.08a4,4,0,0,1,3.65-2.14,3.42,3.42,0,0,1,3.28,2.33h.05a4.76,4.76,0,0,1,1.3-1.51,3.94,3.94,0,0,1,2.57-.82c1.53,0,3.81,1,3.81,5v6.84h-2.06v-6.57c0-2.24-.82-3.58-2.52-3.58a2.74,2.74,0,0,0-2.5,1.92,3.68,3.68,0,0,0-.17,1.06v7.17h-2.06v-7c0-1.85-.82-3.19-2.42-3.19a3.15,3.15,0,0,0-2.79,3.14v7h-2.06Z" transform="translate(-509.77 -193.82)" style="fill:#eab464"/><path d="M603.18,336.19a7.45,7.45,0,0,0,3.74,1.05c2.14,0,3.39-1.12,3.39-2.76s-.87-2.37-3-3.21c-2.64-.94-4.27-2.31-4.27-4.59,0-2.52,2.09-4.39,5.23-4.39a7.34,7.34,0,0,1,3.58.79l-.58,1.71a6.43,6.43,0,0,0-3.07-.77c-2.21,0-3,1.32-3,2.42,0,1.52,1,2.26,3.22,3.12,2.73,1.06,4.12,2.38,4.12,4.76S610.6,339,606.78,339a8.34,8.34,0,0,1-4.13-1Z" transform="translate(-509.77 -193.82)" style="fill:#eab464"/><path d="M617.7,323.78v3.33h3v1.61h-3V335c0,1.44.41,2.25,1.58,2.25a4.8,4.8,0,0,0,1.23-.14l.09,1.58a5.06,5.06,0,0,1-1.87.29,2.93,2.93,0,0,1-2.28-.89,4.28,4.28,0,0,1-.81-3v-6.34h-1.8v-1.61h1.8v-2.78Z" transform="translate(-509.77 -193.82)" style="fill:#eab464"/><path d="M623.1,330.74c0-1.37,0-2.55-.1-3.63h1.85l.07,2.29h.1a3.48,3.48,0,0,1,3.22-2.55,2.74,2.74,0,0,1,.6.07v2a3.11,3.11,0,0,0-.72-.08,3,3,0,0,0-2.84,2.72,6.83,6.83,0,0,0-.09,1v6.19H623.1Z" transform="translate(-509.77 -193.82)" style="fill:#eab464"/><path d="M640.67,335.56c0,1.2,0,2.26.09,3.17h-1.87l-.12-1.89h0a4.37,4.37,0,0,1-3.84,2.16c-1.82,0-4-1-4-5.09v-6.8H633v6.44c0,2.21.67,3.69,2.59,3.69a3,3,0,0,0,3-3v-7.13h2.11Z" transform="translate(-509.77 -193.82)" style="fill:#eab464"/><path d="M652.45,338.3a7.72,7.72,0,0,1-3.33.67c-3.51,0-5.79-2.37-5.79-5.93a5.9,5.9,0,0,1,6.24-6.16,7,7,0,0,1,2.93.6l-.48,1.63a4.88,4.88,0,0,0-2.45-.55c-2.66,0-4.1,2-4.1,4.39,0,2.69,1.73,4.34,4,4.34a6.06,6.06,0,0,0,2.59-.57Z" transform="translate(-509.77 -193.82)" style="fill:#eab464"/><path d="M657.78,323.78v3.33h3v1.61h-3V335c0,1.44.41,2.25,1.58,2.25a4.87,4.87,0,0,0,1.23-.14l.09,1.58a5.06,5.06,0,0,1-1.87.29,2.93,2.93,0,0,1-2.28-.89,4.28,4.28,0,0,1-.81-3v-6.34h-1.8v-1.61h1.8v-2.78Z" transform="translate(-509.77 -193.82)" style="fill:#eab464"/><path d="M672.9,335.56c0,1.2,0,2.26.1,3.17h-1.88l-.12-1.89h0a4.4,4.4,0,0,1-3.84,2.16c-1.83,0-4-1-4-5.09v-6.8h2.11v6.44c0,2.21.67,3.69,2.59,3.69a3,3,0,0,0,3-3v-7.13h2.11Z" transform="translate(-509.77 -193.82)" style="fill:#eab464"/><path d="M676.4,330.74c0-1.37,0-2.55-.09-3.63h1.85l.07,2.29h.09a3.48,3.48,0,0,1,3.22-2.55,2.67,2.67,0,0,1,.6.07v2a3,3,0,0,0-.72-.08,3,3,0,0,0-2.83,2.72,5.58,5.58,0,0,0-.1,1v6.19H676.4Z" transform="translate(-509.77 -193.82)" style="fill:#eab464"/><path d="M685.19,333.31a3.72,3.72,0,0,0,4,4,7.6,7.6,0,0,0,3.22-.6l.36,1.51a9.39,9.39,0,0,1-3.87.72c-3.57,0-5.71-2.35-5.71-5.85s2.07-6.27,5.45-6.27c3.79,0,4.8,3.34,4.8,5.47a9,9,0,0,1-.07,1Zm6.19-1.51c0-1.35-.55-3.44-2.93-3.44-2.13,0-3.07,2-3.24,3.44Z" transform="translate(-509.77 -193.82)" style="fill:#eab464"/><path d="M597.73,351.55a23.9,23.9,0,0,1,4-.32,6.63,6.63,0,0,1,4.54,1.35,4.33,4.33,0,0,1,1.41,3.38,4.78,4.78,0,0,1-1.24,3.46,6.71,6.71,0,0,1-5,1.78,7.19,7.19,0,0,1-1.68-.15v6.48h-2.09Zm2.09,7.8a7,7,0,0,0,1.73.17c2.52,0,4.05-1.23,4.05-3.46s-1.51-3.17-3.81-3.17a8.53,8.53,0,0,0-2,.17Z" transform="translate(-509.77 -193.82)" style="fill:#eab464"/><path d="M610,359.54c0-1.37,0-2.54-.09-3.62h1.85l.07,2.28H612a3.5,3.5,0,0,1,3.22-2.55,2.67,2.67,0,0,1,.6.07v2a3,3,0,0,0-.72-.08,3,3,0,0,0-2.83,2.72,5.58,5.58,0,0,0-.1,1v6.19H610Z" transform="translate(-509.77 -193.82)" style="fill:#eab464"/><path d="M628.17,361.63c0,4.29-3,6.17-5.79,6.17-3.14,0-5.57-2.31-5.57-6,0-3.89,2.55-6.17,5.76-6.17S628.17,358.08,628.17,361.63Zm-9.22.12c0,2.54,1.46,4.46,3.53,4.46s3.53-1.89,3.53-4.51c0-2-1-4.46-3.49-4.46S619,359.54,619,361.75Z" transform="translate(-509.77 -193.82)" style="fill:#eab464"/><path d="M633.37,352.58v3.34h3v1.6h-3v6.27c0,1.44.41,2.25,1.59,2.25a4.78,4.78,0,0,0,1.22-.14l.1,1.58a5.16,5.16,0,0,1-1.88.29,2.93,2.93,0,0,1-2.28-.89,4.28,4.28,0,0,1-.81-3v-6.34h-1.8v-1.6h1.8v-2.79Z" transform="translate(-509.77 -193.82)" style="fill:#eab464"/><path d="M639.8,362.11a3.73,3.73,0,0,0,4,4,7.54,7.54,0,0,0,3.21-.6l.36,1.51a9.3,9.3,0,0,1-3.86.72c-3.58,0-5.71-2.35-5.71-5.85s2.06-6.27,5.45-6.27c3.79,0,4.8,3.34,4.8,5.47a6.73,6.73,0,0,1-.08,1Zm6.2-1.51c0-1.35-.56-3.44-2.93-3.44-2.14,0-3.07,2-3.24,3.44Z" transform="translate(-509.77 -193.82)" style="fill:#eab464"/><path d="M658.93,367.1a7.72,7.72,0,0,1-3.33.67c-3.51,0-5.79-2.37-5.79-5.93a5.9,5.9,0,0,1,6.24-6.16,7,7,0,0,1,2.93.6l-.48,1.63a4.88,4.88,0,0,0-2.45-.55c-2.66,0-4.1,2-4.1,4.39,0,2.69,1.73,4.34,4,4.34a6.06,6.06,0,0,0,2.59-.57Z" transform="translate(-509.77 -193.82)" style="fill:#eab464"/><path d="M664.26,352.58v3.34h3v1.6h-3v6.27c0,1.44.41,2.25,1.58,2.25a4.87,4.87,0,0,0,1.23-.14l.09,1.58a5.06,5.06,0,0,1-1.87.29,2.93,2.93,0,0,1-2.28-.89,4.28,4.28,0,0,1-.81-3v-6.34h-1.8v-1.6h1.8v-2.79Z" transform="translate(-509.77 -193.82)" style="fill:#eab464"/><path d="M672,352.65a1.31,1.31,0,0,1-2.61,0,1.29,1.29,0,0,1,1.32-1.32A1.25,1.25,0,0,1,672,352.65Zm-2.35,14.88V355.92h2.11v11.61Z" transform="translate(-509.77 -193.82)" style="fill:#eab464"/><path d="M685.79,361.63c0,4.29-3,6.17-5.79,6.17-3.14,0-5.56-2.31-5.56-6,0-3.89,2.54-6.17,5.76-6.17S685.79,358.08,685.79,361.63Zm-9.22.12c0,2.54,1.47,4.46,3.53,4.46s3.53-1.89,3.53-4.51c0-2-1-4.46-3.48-4.46S676.57,359.54,676.57,361.75Z" transform="translate(-509.77 -193.82)" style="fill:#eab464"/><path d="M688.45,359.06c0-1.2,0-2.18-.09-3.14h1.87l.12,1.92h0a4.26,4.26,0,0,1,3.84-2.19c1.6,0,4.1,1,4.1,5v6.93h-2.11v-6.69c0-1.88-.7-3.44-2.69-3.44a3.12,3.12,0,0,0-3,3.15v7h-2.11Z" transform="translate(-509.77 -193.82)" style="fill:#eab464"/><path d="M674.46,231.46a12.51,12.51,0,0,1-6.46-2.69,4.14,4.14,0,0,0-5.37,0c-4.23,3.57-12,3.57-16.25-.18a4,4,0,0,0-5.21.21c-4.24,3.54-11.92,3.53-16.19-.2a4,4,0,0,0-5.25.24,12.33,12.33,0,0,1-6.44,2.63,1.81,1.81,0,0,0-1.52,1.85v3.79a1.8,1.8,0,0,0,1.87,1.88,19.34,19.34,0,0,0,8.85-3,20.42,20.42,0,0,0,21.41,0,20.44,20.44,0,0,0,21.42,0,19.77,19.77,0,0,0,8.82,3A1.8,1.8,0,0,0,676,237.1v-3.72A1.87,1.87,0,0,0,674.46,231.46Zm0-16.94a12.6,12.6,0,0,1-6.46-2.7,4.15,4.15,0,0,0-5.37,0c-4.23,3.58-12,3.58-16.25-.17a4,4,0,0,0-5.21.21c-4.24,3.54-11.92,3.53-16.19-.2a4,4,0,0,0-5.25.23,12.26,12.26,0,0,1-6.44,2.64,1.8,1.8,0,0,0-1.52,1.85v3.79a1.81,1.81,0,0,0,1.87,1.88,19.35,19.35,0,0,0,8.85-3.05,20.42,20.42,0,0,0,21.41,0,20.44,20.44,0,0,0,21.42,0,19.91,19.91,0,0,0,8.82,3,1.81,1.81,0,0,0,1.86-1.89v-3.72a1.85,1.85,0,0,0-1.54-1.91Zm0-17a12.59,12.59,0,0,1-6.46-2.69,4.14,4.14,0,0,0-5.37,0c-4.23,3.57-12,3.57-16.25-.18a4,4,0,0,0-5.21.21c-4.24,3.54-11.92,3.53-16.19-.2a4,4,0,0,0-5.25.24,12.33,12.33,0,0,1-6.44,2.63,1.81,1.81,0,0,0-1.52,1.85v3.79a1.8,1.8,0,0,0,1.87,1.88,19.34,19.34,0,0,0,8.85-3,20.42,20.42,0,0,0,21.41,0,20.44,20.44,0,0,0,21.42,0,19.77,19.77,0,0,0,8.82,3,1.8,1.8,0,0,0,1.86-1.88v-3.72a1.87,1.87,0,0,0-1.54-1.92Z" transform="translate(-509.77 -193.82)" style="fill:#eab464"/><path d="M543.89,404.55a12.79,12.79,0,1,0,12.79,12.79A12.81,12.81,0,0,0,543.89,404.55Zm32.83,10.72L564.1,409l4.47-13.38a2.31,2.31,0,0,0-2.92-2.92l-13.38,4.47L546,384.5a2.31,2.31,0,0,0-4.13,0l-6.3,12.62-13.39-4.46a2.31,2.31,0,0,0-2.92,2.92L523.67,409l-12.62,6.31a2.31,2.31,0,0,0,0,4.13l12.62,6.31-4.46,13.39a2.31,2.31,0,0,0,2.92,2.92l13.38-4.47,6.3,12.62a2.3,2.3,0,0,0,4.13,0l6.3-12.62L565.62,442a2.3,2.3,0,0,0,2.92-2.92l-4.46-13.38,12.62-6.3a2.31,2.31,0,0,0,0-4.15ZM556,429.4a17.06,17.06,0,1,1,0-24.12A17.07,17.07,0,0,1,556,429.4Z" transform="translate(-509.77 -193.82)" style="fill:#eab464"/><path d="M763.16,389.1a84,84,0,0,0-8.06,8.06,106.3,106.3,0,0,0-14.24-14.93c-14.09,12.24-24.09,28.2-24.09,37.82,0,17.09,14.38,30.95,32.12,30.95S781,437.14,781,420.05c0-7.15-7.45-21.91-17.84-30.95Zm-2.79,45.76a20.17,20.17,0,0,1-11.07,3.24c-10.35,0-18.76-6.41-18.76-16.82,0-5.19,3.48-9.76,10.43-17.56,1,1.07,14.17,16.83,14.17,16.83l8.41-9c.59.92,1.13,1.82,1.61,2.68a15.39,15.39,0,0,1-4.79,20.61Z" transform="translate(-509.77 -193.82)" style="fill:#eab464"/></svg>