<?xml version="1.0" encoding="UTF-8" standalone="no"?>
<svg
   xmlns:dc="http://purl.org/dc/elements/1.1/"
   xmlns:cc="http://creativecommons.org/ns#"
   xmlns:rdf="http://www.w3.org/1999/02/22-rdf-syntax-ns#"
   xmlns:svg="http://www.w3.org/2000/svg"
   xmlns="http://www.w3.org/2000/svg"
   xmlns:sodipodi="http://sodipodi.sourceforge.net/DTD/sodipodi-0.dtd"
   xmlns:inkscape="http://www.inkscape.org/namespaces/inkscape"
   version="1.1"
   id="svg10"
   xml:space="preserve"
   width="488"
   height="289.33334"
   viewBox="0 0 488 289.33334"
   sodipodi:docname="unconverted.svg"
   inkscape:version="1.0.1 (c497b03c, 2020-09-10)"><metadata
     id="metadata16"><rdf:RDF><cc:Work
         rdf:about=""><dc:format>image/svg+xml</dc:format><dc:type
           rdf:resource="http://purl.org/dc/dcmitype/StillImage" /><dc:title></dc:title></cc:Work></rdf:RDF></metadata><defs
     id="defs14"><clipPath
       clipPathUnits="userSpaceOnUse"
       id="clipPath28"><path
         d="M 0,0 H 366 V 217 H 0 Z"
         id="path26" /></clipPath><clipPath
       clipPathUnits="userSpaceOnUse"
       id="clipPath42"><path
         d="M 0,1 H 365 V 217 H 0 Z"
         id="path40" /></clipPath><clipPath
       clipPathUnits="userSpaceOnUse"
       id="clipPath54"><path
         d="M 54,45 H 354 V 179 H 54 Z"
         id="path52" /></clipPath><clipPath
       clipPathUnits="userSpaceOnUse"
       id="clipPath64"><path
         d="M 0,1 H 365 V 217 H 0 Z"
         id="path62" /></clipPath><clipPath
       clipPathUnits="userSpaceOnUse"
       id="clipPath76"><path
         d="M 0,1 H 365 V 217 H 0 Z"
         id="path74" /></clipPath><clipPath
       clipPathUnits="userSpaceOnUse"
       id="clipPath90"><path
         d="M 0,1 H 365 V 217 H 0 Z"
         id="path88" /></clipPath><clipPath
       clipPathUnits="userSpaceOnUse"
       id="clipPath104"><path
         d="M 0,1 H 365 V 217 H 0 Z"
         id="path102" /></clipPath><clipPath
       clipPathUnits="userSpaceOnUse"
       id="clipPath118"><path
         d="M 0,1 H 365 V 217 H 0 Z"
         id="path116" /></clipPath><clipPath
       clipPathUnits="userSpaceOnUse"
       id="clipPath132"><path
         d="M 0,1 H 365 V 217 H 0 Z"
         id="path130" /></clipPath><clipPath
       clipPathUnits="userSpaceOnUse"
       id="clipPath146"><path
         d="M 0,1 H 365 V 217 H 0 Z"
         id="path144" /></clipPath><clipPath
       clipPathUnits="userSpaceOnUse"
       id="clipPath160"><path
         d="M 0,1 H 365 V 217 H 0 Z"
         id="path158" /></clipPath><clipPath
       clipPathUnits="userSpaceOnUse"
       id="clipPath174"><path
         d="M 0,1 H 365 V 217 H 0 Z"
         id="path172" /></clipPath><clipPath
       clipPathUnits="userSpaceOnUse"
       id="clipPath188"><path
         d="M 0,1 H 365 V 217 H 0 Z"
         id="path186" /></clipPath><clipPath
       clipPathUnits="userSpaceOnUse"
       id="clipPath202"><path
         d="M 0,1 H 365 V 217 H 0 Z"
         id="path200" /></clipPath><clipPath
       clipPathUnits="userSpaceOnUse"
       id="clipPath216"><path
         d="M 0,1 H 365 V 217 H 0 Z"
         id="path214" /></clipPath><clipPath
       clipPathUnits="userSpaceOnUse"
       id="clipPath230"><path
         d="M 0,1 H 365 V 217 H 0 Z"
         id="path228" /></clipPath><clipPath
       clipPathUnits="userSpaceOnUse"
       id="clipPath244"><path
         d="M 0,1 H 365 V 217 H 0 Z"
         id="path242" /></clipPath><clipPath
       clipPathUnits="userSpaceOnUse"
       id="clipPath258"><path
         d="M 0,1 H 365 V 217 H 0 Z"
         id="path256" /></clipPath></defs><sodipodi:namedview
     pagecolor="#ffffff"
     bordercolor="#666666"
     borderopacity="1"
     objecttolerance="10"
     gridtolerance="10"
     guidetolerance="10"
     inkscape:pageopacity="0"
     inkscape:pageshadow="2"
     inkscape:window-width="1495"
     inkscape:window-height="1186"
     id="namedview12"
     showgrid="false"
     inkscape:zoom="2.1577869"
     inkscape:cx="178.65527"
     inkscape:cy="144.66667"
     inkscape:window-x="471"
     inkscape:window-y="418"
     inkscape:window-maximized="0"
     inkscape:current-layer="g18" /><g
     id="g18"
     inkscape:groupmode="layer"
     inkscape:label="unconverted"
     transform="matrix(1.3333333,0,0,-1.3333333,0,289.33333)"><g
       id="g20" /><g
       id="g22"><g
         id="g24"
         clip-path="url(#clipPath28)"><path
           d="M 0,217 H 366 V 0 H 0 Z"
           style="fill:#ffffff;fill-opacity:1;fill-rule:nonzero;stroke:none"
           id="path30" /></g></g><g
       id="g32"><path
         d="M 0,217 H 365 V 0.9999968 H 0 Z"
         style="fill:#ffffff;fill-opacity:1;fill-rule:nonzero;stroke:none"
         id="path34" /></g><g
       id="g36"><g
         id="g38"
         clip-path="url(#clipPath42)"><g
           id="g44"
           transform="matrix(7.874016e-5,0,0,-7.874016e-5,54.5,178.5)"><path
             d="M 0,1447800 H 3810000 M 0,1206500 H 3810000 M 0,965200 H 3810000 M 0,723900 H 3810000 M 0,482600 H 3810000 M 0,241300 H 3810000 M 0,0 h 3810000"
             style="fill:none;stroke:#d9d9d9;stroke-width:9525;stroke-linecap:butt;stroke-linejoin:round;stroke-miterlimit:10;stroke-dasharray:none;stroke-opacity:1"
             id="path46" /></g></g></g><g
       id="g48"><g
         id="g50"
         clip-path="url(#clipPath54)"><path
           d="m 73,108 h 78 V 45 H 73 Z m 150,59 h 78 V 45 h -78 z"
           style="fill:#ffd184;fill-opacity:1;fill-rule:nonzero;stroke:none"
           id="path56" /></g></g><g
       id="g58"><g
         id="g60"
         clip-path="url(#clipPath64)"><g
           id="g66"
           transform="matrix(7.874016e-5,0,0,-7.874016e-5,54.5,45.5)"><path
             d="M 0,0 3810000,1"
             style="fill:none;stroke:#d9d9d9;stroke-width:9525;stroke-linecap:butt;stroke-linejoin:round;stroke-miterlimit:10;stroke-dasharray:none;stroke-opacity:1"
             id="path68" /></g></g></g><g
       id="g70"><g
         id="g72"
         clip-path="url(#clipPath76)"><g
           id="g78"
           transform="translate(96.75169,-126)"><text
             transform="matrix(1,0,0,-1,0,217)"
             style="font-variant:normal;font-weight:bold;font-size:9px;font-family:Merriweather;-inkscape-font-specification:Merriweather-Bold;writing-mode:lr-tb;fill:#404040;fill-opacity:1;fill-rule:nonzero;stroke:none"
             id="text82"><tspan
               x="0 6.0002999 12.0006 15.0039 20.005199 25.0065"
               y="0"
               sodipodi:role="line"
               id="tspan80">$4,273</tspan></text></g></g></g><g
       id="g84"><g
         id="g86"
         clip-path="url(#clipPath90)"><g
           id="g92"
           transform="translate(246.5288,-67)"><text
             transform="matrix(1,0,0,-1,0,217)"
             style="font-variant:normal;font-weight:bold;font-size:9px;font-family:Merriweather;-inkscape-font-specification:Merriweather-Bold;writing-mode:lr-tb;fill:#404040;fill-opacity:1;fill-rule:nonzero;stroke:none"
             id="text96"><tspan
               x="0 6.0002999 11.0016 14.0049 20.005199 25.0065"
               y="0"
               sodipodi:role="line"
               id="tspan94">$7,420</tspan></text></g></g></g><g
       id="g98"><g
         id="g100"
         clip-path="url(#clipPath104)"><g
           id="g106"
           transform="translate(8.586615,-175)"><text
             transform="matrix(1,0,0,-1,0,217)"
             style="font-variant:normal;font-weight:bold;font-size:11px;font-family:Merriweather;-inkscape-font-specification:Merriweather-Bold;writing-mode:lr-tb;fill:#595959;fill-opacity:1;fill-rule:nonzero;stroke:none"
             id="text110"><tspan
               x="0 7.0004001 11.9988 14.9952 21.9956 28.996"
               y="0"
               sodipodi:role="line"
               id="tspan108">$1,000</tspan></text></g></g></g><g
       id="g112"><g
         id="g114"
         clip-path="url(#clipPath118)"><g
           id="g120"
           transform="translate(7.041575,-156)"><text
             transform="matrix(1,0,0,-1,0,217)"
             style="font-variant:normal;font-weight:bold;font-size:11px;font-family:Merriweather;-inkscape-font-specification:Merriweather-Bold;writing-mode:lr-tb;fill:#595959;fill-opacity:1;fill-rule:nonzero;stroke:none"
             id="text124"><tspan
               x="0 7.0004001 12.9998 16.9972 23.997601 30.997999"
               y="0"
               sodipodi:role="line"
               id="tspan122">$2,000</tspan></text></g></g></g><g
       id="g126"><g
         id="g128"
         clip-path="url(#clipPath132)"><g
           id="g134"
           transform="translate(7.451575,-137)"><text
             transform="matrix(1,0,0,-1,0,217)"
             style="font-variant:normal;font-weight:bold;font-size:11px;font-family:Merriweather;-inkscape-font-specification:Merriweather-Bold;writing-mode:lr-tb;fill:#595959;fill-opacity:1;fill-rule:nonzero;stroke:none"
             id="text138"><tspan
               x="0 7.0004001 12.9998 15.9962 22.996599 29.997"
               y="0"
               sodipodi:role="line"
               id="tspan136">$3,000</tspan></text></g></g></g><g
       id="g140"><g
         id="g142"
         clip-path="url(#clipPath146)"><g
           id="g148"
           transform="translate(6.456614,-118)"><text
             transform="matrix(1,0,0,-1,0,217)"
             style="font-variant:normal;font-weight:bold;font-size:11px;font-family:Merriweather;-inkscape-font-specification:Merriweather-Bold;writing-mode:lr-tb;fill:#595959;fill-opacity:1;fill-rule:nonzero;stroke:none"
             id="text152"><tspan
               x="0 7.0004001 14.0008 16.9972 23.997601 30.997999"
               y="0"
               sodipodi:role="line"
               id="tspan150">$4,000</tspan></text></g></g></g><g
       id="g154"><g
         id="g156"
         clip-path="url(#clipPath160)"><g
           id="g162"
           transform="translate(6.971575,-99)"><text
             transform="matrix(1,0,0,-1,0,217)"
             style="font-variant:normal;font-weight:bold;font-size:11px;font-family:Merriweather;-inkscape-font-specification:Merriweather-Bold;writing-mode:lr-tb;fill:#595959;fill-opacity:1;fill-rule:nonzero;stroke:none"
             id="text166"><tspan
               x="0 7.0004001 12.9998 16.9972 23.997601 30.997999"
               y="0"
               sodipodi:role="line"
               id="tspan164">$5,000</tspan></text></g></g></g><g
       id="g168"><g
         id="g170"
         clip-path="url(#clipPath174)"><g
           id="g176"
           transform="translate(6.351575,-80)"><text
             transform="matrix(1,0,0,-1,0,217)"
             style="font-variant:normal;font-weight:bold;font-size:11px;font-family:Merriweather;-inkscape-font-specification:Merriweather-Bold;writing-mode:lr-tb;fill:#595959;fill-opacity:1;fill-rule:nonzero;stroke:none"
             id="text180"><tspan
               x="0 7.0004001 14.0008 17.998199 23.997601 30.997999"
               y="0"
               sodipodi:role="line"
               id="tspan178">$6,000</tspan></text></g></g></g><g
       id="g182"><g
         id="g184"
         clip-path="url(#clipPath188)"><g
           id="g190"
           transform="translate(7.161575,-61)"><text
             transform="matrix(1,0,0,-1,0,217)"
             style="font-variant:normal;font-weight:bold;font-size:11px;font-family:Merriweather;-inkscape-font-specification:Merriweather-Bold;writing-mode:lr-tb;fill:#595959;fill-opacity:1;fill-rule:nonzero;stroke:none"
             id="text194"><tspan
               x="0 7.0004001 12.9998 16.9972 23.997601 30.997999"
               y="0"
               sodipodi:role="line"
               id="tspan192">$7,000</tspan></text></g></g></g><g
       id="g196"><g
         id="g198"
         clip-path="url(#clipPath202)"><g
           id="g204"
           transform="translate(6.666614,-42)"><text
             transform="matrix(1,0,0,-1,0,217)"
             style="font-variant:normal;font-weight:bold;font-size:11px;font-family:Merriweather;-inkscape-font-specification:Merriweather-Bold;writing-mode:lr-tb;fill:#595959;fill-opacity:1;fill-rule:nonzero;stroke:none"
             id="text208"><tspan
               x="0 7.0004001 14.0008 16.9972 23.997601 30.997999"
               y="0"
               sodipodi:role="line"
               id="tspan206">$8,000</tspan></text></g></g></g><g
       id="g210"><g
         id="g212"
         clip-path="url(#clipPath216)"><g
           id="g218"
           transform="translate(81.24606,-185)"><text
             transform="matrix(1,0,0,-1,0,217)"
             style="font-variant:normal;font-weight:bold;font-size:10px;font-family:Merriweather;-inkscape-font-specification:Merriweather-Bold;writing-mode:lr-tb;fill:#595959;fill-opacity:1;fill-rule:nonzero;stroke:none"
             id="text222"><tspan
               x="0 8 14 18 24 29 35 38 40 48 53"
               y="0"
               sodipodi:role="line"
               id="tspan220">Natural Gas</tspan></text></g></g></g><g
       id="g224"><g
         id="g226"
         clip-path="url(#clipPath230)"><g
           id="g232"
           transform="translate(223.2231,-185)"><text
             transform="matrix(1,0,0,-1,0,217)"
             style="font-variant:normal;font-weight:bold;font-size:10px;font-family:Merriweather;-inkscape-font-specification:Merriweather-Bold;writing-mode:lr-tb;fill:#595959;fill-opacity:1;fill-rule:nonzero;stroke:none"
             id="text236"><tspan
               x="0 7 11 18 24 30 36 42 44 51 55 58 65 68"
               y="0"
               sodipodi:role="line"
               id="tspan234">Propane or Oil</tspan></text></g></g></g><g
       id="g238"><g
         id="g240"
         clip-path="url(#clipPath244)"><g
           id="g246"
           transform="translate(137.8293,-204)"><text
             transform="matrix(1,0,0,-1,0,217)"
             style="font-variant:normal;font-weight:bold;font-size:11px;font-family:Merriweather;-inkscape-font-specification:Merriweather-Bold;writing-mode:lr-tb;fill:#595959;fill-opacity:1;fill-rule:nonzero;stroke:none"
             id="text250"><tspan
               x="0 9.0002003 15.9984 23.997601 31.996799 34.000999 40.999199 48.998402 56.997601 64.996803 71.995003"
               y="0"
               sodipodi:role="line"
               id="tspan248">HEAT SOURCE</tspan></text></g></g></g><g
       id="g252"><g
         id="g254"
         clip-path="url(#clipPath258)"><g
           id="g260"
           transform="translate(64.87181,-24)"><text
             transform="matrix(1,0,0,-1,0,217)"
             style="font-variant:normal;font-weight:bold;font-size:14px;font-family:Merriweather;-inkscape-font-specification:Merriweather-Bold;writing-mode:lr-tb;fill:#595959;fill-opacity:1;fill-rule:nonzero;stroke:none"
             id="text264"><tspan
               x="0 7.9995999 13.9972 23.004801 30.010401 34.006001 43.013599 47.009201 55.008801 65.010399 74.017998 84.0196 94.021202 97.022797 105.0224 115.024 125.0256 131.02319 142.0188 152.0204 160.02 164.01559 173.02319 182.03081 192.03239 202.034 206.0296"
               y="0"
               sodipodi:role="line"
               id="tspan262">SIPs + SOLAR SAVINGS YEAR 5</tspan></text></g></g></g><g
       id="g266"><g
         id="g268"
         transform="matrix(7.874016e-5,0,0,-7.874016e-5,0.5,216.5)"><path
           d="M 0,0 H 4635500 V 2743200 H 0 Z"
           style="fill:none;stroke:#d9d9d9;stroke-width:9525;stroke-linecap:butt;stroke-linejoin:round;stroke-miterlimit:10;stroke-dasharray:none;stroke-opacity:1"
           id="path270" /></g></g></g></svg>
