<svg height='100px' width='100px'  fill="#51a7f9" xmlns="http://www.w3.org/2000/svg" xmlns:xlink="http://www.w3.org/1999/xlink" xml:space="preserve" version="1.1" style="shape-rendering:geometricPrecision;text-rendering:geometricPrecision;image-rendering:optimizeQuality;" viewBox="0 0 2540 2540" x="0px" y="0px" fill-rule="evenodd" clip-rule="evenodd"><defs><style type="text/css">
   
    .fil0 {fill:#51a7f9;fill-rule:nonzero}
   
  </style></defs><g><path class="fil0" d="M963 472c-86,69 -149,166 -177,276 45,21 85,50 119,84 77,77 125,184 125,301 0,14 -11,26 -25,26 -14,0 -26,-12 -26,-26 0,-103 -42,-197 -110,-265 -67,-68 -161,-110 -265,-110 -104,0 -198,42 -265,110 -68,68 -110,162 -110,265 0,104 42,198 110,266 67,68 161,110 265,110l1332 0c104,0 198,-42 265,-110 68,-68 110,-162 110,-266 0,-103 -42,-197 -110,-265 -67,-68 -161,-110 -265,-110 -49,0 -95,9 -137,26 -44,17 -84,43 -119,74 -10,10 -26,9 -35,-1 -10,-10 -9,-26 1,-36 39,-36 84,-65 134,-84l6 -2c-30,-107 -93,-200 -178,-267 -88,-69 -199,-111 -320,-111 -123,0 -236,43 -325,115z"></path><path class="fil0" d="M708 2021c8,-11 24,-14 35,-6 11,8 14,24 6,35l-86 122c-8,11 -24,14 -35,6 -12,-8 -14,-24 -6,-35l86 -122z"></path><path class="fil0" d="M977 1640c8,-11 24,-14 36,-6 11,8 14,24 6,35l-209 295c-8,12 -24,14 -35,6 -12,-8 -14,-23 -6,-35l208 -295z"></path><path class="fil0" d="M1023 1892c8,-12 24,-15 35,-7 12,9 14,24 6,36l-178 251c-8,11 -23,14 -35,6 -11,-8 -14,-24 -6,-35l178 -251z"></path><path class="fil0" d="M1201 1640c8,-11 24,-14 35,-6 11,8 14,24 6,35l-104 148c-8,11 -24,14 -36,6 -11,-8 -14,-24 -6,-35l105 -148z"></path><path class="fil0" d="M1159 2021c8,-11 24,-14 36,-6 11,8 14,24 6,35l-86 122c-8,11 -24,14 -36,6 -11,-8 -14,-24 -6,-35l86 -122z"></path><path class="fil0" d="M1429 1640c8,-11 24,-14 35,-6 12,8 14,24 6,35l-209 295c-8,12 -23,14 -35,6 -11,-8 -14,-23 -6,-35l209 -295z"></path><path class="fil0" d="M1487 1851c8,-12 24,-14 35,-6 11,8 14,24 6,35l-205 292c-8,11 -24,14 -35,6 -12,-8 -15,-24 -6,-35l205 -292z"></path><path class="fil0" d="M1637 1640c8,-11 24,-14 36,-6 11,8 14,24 6,35l-71 100c-8,11 -24,14 -35,6 -11,-8 -14,-24 -6,-35l70 -100z"></path><path class="fil0" d="M1607 2021c9,-11 24,-14 36,-6 11,8 14,24 6,35l-86 122c-8,11 -24,14 -36,6 -11,-8 -14,-24 -6,-35l86 -122z"></path><path class="fil0" d="M1877 1640c8,-11 24,-14 35,-6 12,8 14,24 6,35l-208 295c-8,12 -24,14 -36,6 -11,-8 -14,-23 -6,-35l209 -295z"></path></g></svg>