<?xml version="1.0" encoding="UTF-8" standalone="no"?>
<svg
   xmlns:dc="http://purl.org/dc/elements/1.1/"
   xmlns:cc="http://creativecommons.org/ns#"
   xmlns:rdf="http://www.w3.org/1999/02/22-rdf-syntax-ns#"
   xmlns:svg="http://www.w3.org/2000/svg"
   xmlns="http://www.w3.org/2000/svg"
   xmlns:sodipodi="http://sodipodi.sourceforge.net/DTD/sodipodi-0.dtd"
   xmlns:inkscape="http://www.inkscape.org/namespaces/inkscape"
   version="1.1"
   id="svg645"
   xml:space="preserve"
   width="486.66656"
   height="270.66656"
   viewBox="0 0 486.66656 270.66656"
   sodipodi:docname="Payback for SIPs &amp; Solar.svg"
   inkscape:version="1.0.1 (c497b03c, 2020-09-10)"><metadata
     id="metadata651"><rdf:RDF><cc:Work
         rdf:about=""><dc:format>image/svg+xml</dc:format><dc:type
           rdf:resource="http://purl.org/dc/dcmitype/StillImage" /><dc:title></dc:title></cc:Work></rdf:RDF></metadata><defs
     id="defs649"><clipPath
       clipPathUnits="userSpaceOnUse"
       id="clipPath663"><path
         d="M 50,497 H 519 V 738 H 50 Z"
         id="path661" /></clipPath><clipPath
       clipPathUnits="userSpaceOnUse"
       id="clipPath673"><path
         d="M 96,519 H 460 V 721 H 96 Z"
         id="path671" /></clipPath><clipPath
       clipPathUnits="userSpaceOnUse"
       id="clipPath685"><path
         d="M 142,562 H 450 V 684 H 142 Z"
         id="path683" /></clipPath><clipPath
       clipPathUnits="userSpaceOnUse"
       id="clipPath695"><path
         d="M 142,562 H 450 V 684 H 142 Z"
         id="path693" /></clipPath><clipPath
       clipPathUnits="userSpaceOnUse"
       id="clipPath705"><path
         d="M 96,519 H 460 V 721 H 96 Z"
         id="path703" /></clipPath><clipPath
       clipPathUnits="userSpaceOnUse"
       id="clipPath717"><path
         d="M 96,519 H 460 V 721 H 96 Z"
         id="path715" /></clipPath><clipPath
       clipPathUnits="userSpaceOnUse"
       id="clipPath731"><path
         d="M 96,519 H 460 V 721 H 96 Z"
         id="path729" /></clipPath><clipPath
       clipPathUnits="userSpaceOnUse"
       id="clipPath745"><path
         d="M 96,519 H 460 V 721 H 96 Z"
         id="path743" /></clipPath><clipPath
       clipPathUnits="userSpaceOnUse"
       id="clipPath759"><path
         d="M 96,519 H 460 V 721 H 96 Z"
         id="path757" /></clipPath><clipPath
       clipPathUnits="userSpaceOnUse"
       id="clipPath773"><path
         d="M 96,519 H 460 V 721 H 96 Z"
         id="path771" /></clipPath><clipPath
       clipPathUnits="userSpaceOnUse"
       id="clipPath787"><path
         d="M 96,519 H 460 V 721 H 96 Z"
         id="path785" /></clipPath><clipPath
       clipPathUnits="userSpaceOnUse"
       id="clipPath801"><path
         d="M 96,519 H 460 V 721 H 96 Z"
         id="path799" /></clipPath><clipPath
       clipPathUnits="userSpaceOnUse"
       id="clipPath815"><path
         d="M 96,519 H 460 V 721 H 96 Z"
         id="path813" /></clipPath><clipPath
       clipPathUnits="userSpaceOnUse"
       id="clipPath829"><path
         d="M 96,519 H 460 V 721 H 96 Z"
         id="path827" /></clipPath><clipPath
       clipPathUnits="userSpaceOnUse"
       id="clipPath843"><path
         d="M 96,519 H 460 V 721 H 96 Z"
         id="path841" /></clipPath><clipPath
       clipPathUnits="userSpaceOnUse"
       id="clipPath857"><path
         d="M 96,519 H 460 V 721 H 96 Z"
         id="path855" /></clipPath><clipPath
       clipPathUnits="userSpaceOnUse"
       id="clipPath871"><path
         d="M 96,519 H 460 V 721 H 96 Z"
         id="path869" /></clipPath><clipPath
       clipPathUnits="userSpaceOnUse"
       id="clipPath885"><path
         d="M 96,519 H 460 V 721 H 96 Z"
         id="path883" /></clipPath><clipPath
       clipPathUnits="userSpaceOnUse"
       id="clipPath899"><path
         d="M 96,519 H 460 V 721 H 96 Z"
         id="path897" /></clipPath><clipPath
       clipPathUnits="userSpaceOnUse"
       id="clipPath913"><path
         d="M 50,497 H 519 V 738 H 50 Z"
         id="path911" /></clipPath></defs><sodipodi:namedview
     pagecolor="#ffffff"
     bordercolor="#666666"
     borderopacity="1"
     objecttolerance="10"
     gridtolerance="10"
     guidetolerance="10"
     inkscape:pageopacity="0"
     inkscape:pageshadow="2"
     inkscape:window-width="1362"
     inkscape:window-height="1145"
     id="namedview647"
     showgrid="false"
     inkscape:zoom="0.95454545"
     inkscape:cx="388.95249"
     inkscape:cy="368.6032"
     inkscape:window-x="351"
     inkscape:window-y="391"
     inkscape:window-maximized="0"
     inkscape:current-layer="g653" /><g
     id="g653"
     inkscape:groupmode="layer"
     inkscape:label="Payback for SIPs &amp; Solar"
     transform="matrix(1.3333333,0,0,-1.3333333,-36.857032,1028.6032)"><g
       id="g655" /><g
       id="g657"
       transform="translate(-68.357145,50.285716)"><g
         id="g659"
         clip-path="url(#clipPath663)"><path
           d="M 96.49992,720.6667 H 460.4999 V 518.6668 H 96.49992 Z"
           style="fill:#ffffff;fill-opacity:1;fill-rule:nonzero;stroke:none"
           id="path665" /></g></g><g
       id="g667"
       transform="translate(-68.357145,50.285716)"><g
         id="g669"
         clip-path="url(#clipPath673)"><g
           id="g675"
           transform="matrix(7.874016e-5,0,0,-7.874016e-5,142.0483,683.1667)"><path
             d="M 0,1310217 H 3904636 M 0,1094317 H 3904636 M 0,878417 H 3904636 M 0,662517 H 3904636 M 0,433917 H 3904636 M 0,218017 H 3904636 M 0,0 h 3904636"
             style="fill:none;stroke:#d9d9d9;stroke-width:12700;stroke-linecap:butt;stroke-linejoin:round;stroke-miterlimit:10;stroke-dasharray:none;stroke-opacity:1"
             id="path677" /></g></g></g><g
       id="g679"
       transform="translate(-68.357145,50.285716)"><g
         id="g681"
         clip-path="url(#clipPath685)"><path
           d="m 180,619 h 34 v -56.4824 h -34 z m 154,54 h 34 V 562.5176 h -34 z"
           style="fill:#ffd184;fill-opacity:1;fill-rule:nonzero;stroke:none"
           id="path687" /></g></g><g
       id="g689"
       transform="translate(-68.357145,50.285716)"><g
         id="g691"
         clip-path="url(#clipPath695)"><path
           d="m 224,545.2993 h 34 v 17.70071 h -34 z"
           style="fill:#e2aa00;fill-opacity:1;fill-rule:nonzero;stroke:none"
           id="path697" /></g></g><g
       id="g699"
       transform="translate(-68.357145,50.285716)"><g
         id="g701"
         clip-path="url(#clipPath705)"><g
           id="g707"
           transform="matrix(7.874016e-5,0,0,-7.874016e-5,142.0483,562.5176)"><path
             d="M 0,0 3904636,1"
             style="fill:none;stroke:#d9d9d9;stroke-width:12700;stroke-linecap:butt;stroke-linejoin:round;stroke-miterlimit:10;stroke-dasharray:none;stroke-opacity:1"
             id="path709" /></g></g></g><g
       id="g711"
       transform="translate(-68.357145,50.285716)"><g
         id="g713"
         clip-path="url(#clipPath717)"><g
           id="g719"
           transform="translate(183.6242,368)"><text
             transform="matrix(1,0,0,-1,0,241)"
             style="font-variant:normal;font-weight:bold;font-size:9px;font-family:Calibri;-inkscape-font-specification:Calibri-Bold;writing-mode:lr-tb;fill:#404040;fill-opacity:1;fill-rule:nonzero;stroke:none"
             id="text723"><tspan
               x="0 5.0004001 10.0008 12.0042 17.004601 22.004999"
               y="0"
               sodipodi:role="line"
               id="tspan721">$4,273</tspan></text></g></g></g><g
       id="g725"
       transform="translate(-68.357145,50.285716)"><g
         id="g727"
         clip-path="url(#clipPath731)"><g
           id="g733"
           transform="translate(337.35,422)"><text
             transform="matrix(1,0,0,-1,0,241)"
             style="font-variant:normal;font-weight:bold;font-size:9px;font-family:Calibri;-inkscape-font-specification:Calibri-Bold;writing-mode:lr-tb;fill:#404040;fill-opacity:1;fill-rule:nonzero;stroke:none"
             id="text737"><tspan
               x="0 5.0004001 10.0008 12.0042 17.004601 22.004999"
               y="0"
               sodipodi:role="line"
               id="tspan735">$7,420</tspan></text></g></g></g><g
       id="g739"
       transform="translate(-68.357145,50.285716)"><g
         id="g741"
         clip-path="url(#clipPath745)"><g
           id="g747"
           transform="translate(102.9999,319)"><text
             transform="matrix(1,0,0,-1,0,241)"
             style="font-variant:normal;font-weight:bold;font-size:11px;font-family:Calibri;-inkscape-font-specification:Calibri-Bold;writing-mode:lr-tb;fill:#595959;fill-opacity:1;fill-rule:nonzero;stroke:none"
             id="text751"><tspan
               x="0 4.9994998 11 12.9965 18.997 23.9965"
               y="0"
               sodipodi:role="line"
               id="tspan749">$1,000</tspan></text></g></g></g><g
       id="g753"
       transform="translate(-68.357145,50.285716)"><g
         id="g755"
         clip-path="url(#clipPath759)"><g
           id="g761"
           transform="translate(102.9999,336)"><text
             transform="matrix(1,0,0,-1,0,241)"
             style="font-variant:normal;font-weight:bold;font-size:11px;font-family:Calibri;-inkscape-font-specification:Calibri-Bold;writing-mode:lr-tb;fill:#595959;fill-opacity:1;fill-rule:nonzero;stroke:none"
             id="text765"><tspan
               x="0 4.9994998 11 12.9965 18.997 23.9965"
               y="0"
               sodipodi:role="line"
               id="tspan763">$2,000</tspan></text></g></g></g><g
       id="g767"
       transform="translate(-68.357145,50.285716)"><g
         id="g769"
         clip-path="url(#clipPath773)"><g
           id="g775"
           transform="translate(102.9999,353)"><text
             transform="matrix(1,0,0,-1,0,241)"
             style="font-variant:normal;font-weight:bold;font-size:11px;font-family:Calibri;-inkscape-font-specification:Calibri-Bold;writing-mode:lr-tb;fill:#595959;fill-opacity:1;fill-rule:nonzero;stroke:none"
             id="text779"><tspan
               x="0 4.9994998 11 12.9965 18.997 23.9965"
               y="0"
               sodipodi:role="line"
               id="tspan777">$3,000</tspan></text></g></g></g><g
       id="g781"
       transform="translate(-68.357145,50.285716)"><g
         id="g783"
         clip-path="url(#clipPath787)"><g
           id="g789"
           transform="translate(102.9999,370)"><text
             transform="matrix(1,0,0,-1,0,241)"
             style="font-variant:normal;font-weight:bold;font-size:11px;font-family:Calibri;-inkscape-font-specification:Calibri-Bold;writing-mode:lr-tb;fill:#595959;fill-opacity:1;fill-rule:nonzero;stroke:none"
             id="text793"><tspan
               x="0 4.9994998 11 12.9965 18.997 23.9965"
               y="0"
               sodipodi:role="line"
               id="tspan791">$4,000</tspan></text></g></g></g><g
       id="g795"
       transform="translate(-68.357145,50.285716)"><g
         id="g797"
         clip-path="url(#clipPath801)"><g
           id="g803"
           transform="translate(102.9999,388)"><text
             transform="matrix(1,0,0,-1,0,241)"
             style="font-variant:normal;font-weight:bold;font-size:11px;font-family:Calibri;-inkscape-font-specification:Calibri-Bold;writing-mode:lr-tb;fill:#595959;fill-opacity:1;fill-rule:nonzero;stroke:none"
             id="text807"><tspan
               x="0 4.9994998 11 12.9965 18.997 23.9965"
               y="0"
               sodipodi:role="line"
               id="tspan805">$5,000</tspan></text></g></g></g><g
       id="g809"
       transform="translate(-68.357145,50.285716)"><g
         id="g811"
         clip-path="url(#clipPath815)"><g
           id="g817"
           transform="translate(102.9999,405)"><text
             transform="matrix(1,0,0,-1,0,241)"
             style="font-variant:normal;font-weight:bold;font-size:11px;font-family:Calibri;-inkscape-font-specification:Calibri-Bold;writing-mode:lr-tb;fill:#595959;fill-opacity:1;fill-rule:nonzero;stroke:none"
             id="text821"><tspan
               x="0 4.9994998 11 12.9965 18.997 23.9965"
               y="0"
               sodipodi:role="line"
               id="tspan819">$6,000</tspan></text></g></g></g><g
       id="g823"
       transform="translate(-68.357145,50.285716)"><g
         id="g825"
         clip-path="url(#clipPath829)"><g
           id="g831"
           transform="translate(102.9999,422)"><text
             transform="matrix(1,0,0,-1,0,241)"
             style="font-variant:normal;font-weight:bold;font-size:11px;font-family:Calibri;-inkscape-font-specification:Calibri-Bold;writing-mode:lr-tb;fill:#595959;fill-opacity:1;fill-rule:nonzero;stroke:none"
             id="text835"><tspan
               x="0 4.9994998 11 12.9965 18.997 23.9965"
               y="0"
               sodipodi:role="line"
               id="tspan833">$7,000</tspan></text></g></g></g><g
       id="g837"
       transform="translate(-68.357145,50.285716)"><g
         id="g839"
         clip-path="url(#clipPath843)"><g
           id="g845"
           transform="translate(102.9999,439)"><text
             transform="matrix(1,0,0,-1,0,241)"
             style="font-variant:normal;font-weight:bold;font-size:11px;font-family:Calibri;-inkscape-font-specification:Calibri-Bold;writing-mode:lr-tb;fill:#595959;fill-opacity:1;fill-rule:nonzero;stroke:none"
             id="text849"><tspan
               x="0 4.9994998 11 12.9965 18.997 23.9965"
               y="0"
               sodipodi:role="line"
               id="tspan847">$8,000</tspan></text></g></g></g><g
       id="g851"
       transform="translate(-68.357145,50.285716)"><g
         id="g853"
         clip-path="url(#clipPath857)"><g
           id="g859"
           transform="translate(176.4061,308)"><text
             transform="matrix(1,0,0,-1,0,241)"
             style="font-variant:normal;font-weight:bold;font-size:10px;font-family:Calibri;-inkscape-font-specification:Calibri-Bold;writing-mode:lr-tb;fill:#595959;fill-opacity:1;fill-rule:nonzero;stroke:none"
             id="text863"><tspan
               x="0 7 12 15 20 24 29 31 34 40 45"
               y="0"
               sodipodi:role="line"
               id="tspan861">Natural Gas</tspan></text></g></g></g><g
       id="g865"
       transform="translate(-68.357145,50.285716)"><g
         id="g867"
         clip-path="url(#clipPath871)"><g
           id="g873"
           transform="translate(323.3893,308)"><text
             transform="matrix(1,0,0,-1,0,241)"
             style="font-variant:normal;font-weight:bold;font-size:10px;font-family:Calibri;-inkscape-font-specification:Calibri-Bold;writing-mode:lr-tb;fill:#595959;fill-opacity:1;fill-rule:nonzero;stroke:none"
             id="text877"><tspan
               x="0 5 9 14 20 25 30 35 37 43 46 48 55 58"
               y="0"
               sodipodi:role="line"
               id="tspan875">Propane or Oil</tspan></text></g></g></g><g
       id="g879"
       transform="translate(-68.357145,50.285716)"><g
         id="g881"
         clip-path="url(#clipPath885)"><g
           id="g887"
           transform="translate(238.7174,287)"><text
             transform="matrix(1,0,0,-1,0,241)"
             style="font-variant:normal;font-weight:bold;font-size:11px;font-family:Calibri;-inkscape-font-specification:Calibri-Bold;writing-mode:lr-tb;fill:#595959;fill-opacity:1;fill-rule:nonzero;stroke:none"
             id="text891"><tspan
               x="0 7.0004001 11.9988 18.999201 23.997601 25.993 30.9914 37.991798 44.992199 50.9916 56.991001"
               y="0"
               sodipodi:role="line"
               id="tspan889">HEAT SOURCE</tspan></text></g></g></g><g
       id="g893"
       transform="translate(-68.357145,50.285716)"><g
         id="g895"
         clip-path="url(#clipPath899)"><g
           id="g901"
           transform="translate(183.4688,459)"><text
             transform="matrix(1,0,0,-1,0,241)"
             style="font-variant:normal;font-weight:bold;font-size:14px;font-family:Calibri;-inkscape-font-specification:Calibri-Bold;writing-mode:lr-tb;fill:#595959;fill-opacity:1;fill-rule:nonzero;stroke:none"
             id="text905"><tspan
               x="0 7 11.004 18.004 24.01 26.011999 33.012001 37.015999 44.015999 53.018002 59.023998 67.017998 75.012001 78.008003 85.008003 92.008003 100.002 104.006 113.008 122.01 129.00999 132.006 139.006 146.006 154 161.994 165.998"
               y="0"
               sodipodi:role="line"
               id="tspan903">SIPs + SOLAR SAVINGS YEAR 5</tspan></text></g></g></g><g
       id="g907"
       transform="translate(-68.357145,50.285716)"><g
         id="g909"
         clip-path="url(#clipPath913)"><g
           id="g915"
           transform="matrix(7.874016e-5,0,0,-7.874016e-5,96.49992,720.6667)"><path
             d="M 0,0 H 4622799 V 2565399 H 0 Z"
             style="fill:none;stroke:#d9d9d9;stroke-width:12700;stroke-linecap:butt;stroke-linejoin:round;stroke-miterlimit:10;stroke-dasharray:none;stroke-opacity:1"
             id="path917" /></g></g></g></g></svg>
