<?xml version="1.0" encoding="utf-8"?>
<!-- Generator: Adobe Illustrator 25.0.0, SVG Export Plug-In . SVG Version: 6.00 Build 0)  -->
<svg version="1.1" id="body_1" xmlns="http://www.w3.org/2000/svg" xmlns:xlink="http://www.w3.org/1999/xlink" x="0px" y="0px"
	 viewBox="0 0 481 289" style="enable-background:new 0 0 481 289;" xml:space="preserve">
<style type="text/css">
	.st0{clip-path:url(#SVGID_2_);}
	.st1{fill:#FFFFFF;}
	.st2{clip-path:url(#SVGID_4_);}
	.st3{fill:none;stroke:#D9D9D9;stroke-width:1;stroke-miterlimit:5.3332;}
	.st4{clip-path:url(#SVGID_6_);}
	.st5{fill:#EAB464;}
	.st6{clip-path:url(#SVGID_8_);}
	.st7{clip-path:url(#SVGID_10_);}
	.st8{fill:#404040;}
	.st9{font-family:'ArialMT';}
	.st10{font-size:11.9997px;}
	.st11{clip-path:url(#SVGID_12_);}
	.st12{clip-path:url(#SVGID_14_);}
	.st13{fill:#595959;}
	.st14{font-size:14.6663px;}
	.st15{clip-path:url(#SVGID_16_);}
	.st16{clip-path:url(#SVGID_18_);}
	.st17{clip-path:url(#SVGID_20_);}
	.st18{clip-path:url(#SVGID_22_);}
	.st19{clip-path:url(#SVGID_24_);}
	.st20{clip-path:url(#SVGID_26_);}
	.st21{clip-path:url(#SVGID_28_);}
	.st22{clip-path:url(#SVGID_30_);}
	.st23{font-size:13.333px;}
	.st24{clip-path:url(#SVGID_32_);}
	.st25{clip-path:url(#SVGID_34_);}
	.st26{clip-path:url(#SVGID_36_);}
	.st27{font-size:18.6662px;}
</style>
<g transform="matrix(1.3333 0 0 1.3333 0 0)">
	<g>
		<defs>
			<polygon id="SVGID_1_" points="0,217 0,0 0,0 361,0 361,0 361,217 361,217 			"/>
		</defs>
		<clipPath id="SVGID_2_">
			<use xlink:href="#SVGID_1_"  style="overflow:visible;"/>
		</clipPath>
		<g class="st0">
			<path class="st1" d="M1,0h359l0,0v216l0,0H1V0z"/>
			<g>
				<defs>
					<polygon id="SVGID_3_" points="0,216 360,216 360,216 360,0 360,0 0,0 					"/>
				</defs>
				<clipPath id="SVGID_4_">
					<use xlink:href="#SVGID_3_"  style="overflow:visible;"/>
				</clipPath>
				<g class="st2">
					<path class="st3" d="M46.5,37.5h303 M46.5,56.5h303 M46.5,75.5h303 M46.5,95.5h303 M46.5,114.5h303 M46.5,133.5h303
						 M46.5,152.5h303"/>
				</g>
			</g>
			<g>
				<defs>
					<polygon id="SVGID_5_" points="46,172 350,172 350,172 350,37 350,37 46,37 					"/>
				</defs>
				<clipPath id="SVGID_6_">
					<use xlink:href="#SVGID_5_"  style="overflow:visible;"/>
				</clipPath>
				<g class="st4">
					<path class="st5" d="M235,49h34l0,0v123l0,0h-34V49z M83,109h34l0,0v63l0,0H83V109z"/>
				</g>
			</g>
			<g>
				<defs>
					<polygon id="SVGID_7_" points="0,216 360,216 360,216 360,0 360,0 0,0 					"/>
				</defs>
				<clipPath id="SVGID_8_">
					<use xlink:href="#SVGID_7_"  style="overflow:visible;"/>
				</clipPath>
				<g class="st6">
					<path class="st3" d="M46.5,172.5l303,0"/>
				</g>
			</g>
			<g>
				<defs>
					<polygon id="SVGID_9_" points="0,216 360,216 360,216 360,0 360,0 0,0 					"/>
				</defs>
				<clipPath id="SVGID_10_">
					<use xlink:href="#SVGID_9_"  style="overflow:visible;"/>
				</clipPath>
				<g class="st7">
					<text transform="matrix(0.75 0 0 0.75 87.7463 102.9987)" class="st8 st9 st10">$</text>
					<text transform="matrix(0.75 0 0 0.75 92.305 102.9987)" class="st8 st9 st10">4</text>
					<text transform="matrix(0.75 0 0 0.75 96.8637 102.9987)" class="st8 st9 st10">,</text>
					<text transform="matrix(0.75 0 0 0.75 99.1841 102.9987)" class="st8 st9 st10">2</text>
					<text transform="matrix(0.75 0 0 0.75 103.7428 102.9987)" class="st8 st9 st10">7</text>
					<text transform="matrix(0.75 0 0 0.75 108.3074 102.9987)" class="st8 st9 st10">3</text>
				</g>
			</g>
			<g>
				<defs>
					<polygon id="SVGID_11_" points="0,216 360,216 360,216 360,0 360,0 0,0 					"/>
				</defs>
				<clipPath id="SVGID_12_">
					<use xlink:href="#SVGID_11_"  style="overflow:visible;"/>
				</clipPath>
				<g class="st11">
					<text transform="matrix(0.75 0 0 0.75 233.707 41.9952)" class="st8 st9 st10">$</text>
					<text transform="matrix(0.75 0 0 0.75 238.2716 41.9952)" class="st8 st9 st10">7</text>
					<text transform="matrix(0.75 0 0 0.75 242.8303 41.9952)" class="st8 st9 st10">,</text>
					<text transform="matrix(0.75 0 0 0.75 245.1507 41.9952)" class="st8 st9 st10">4</text>
					<text transform="matrix(0.75 0 0 0.75 249.7094 41.9952)" class="st8 st9 st10">1</text>
					<text transform="matrix(0.75 0 0 0.75 254.2681 41.9952)" class="st8 st9 st10">9</text>
					<text transform="matrix(0.75 0 0 0.75 258.8268 41.9952)" class="st8 st9 st10">.</text>
					<text transform="matrix(0.75 0 0 0.75 261.2409 41.9952)" class="st8 st9 st10">9</text>
					<text transform="matrix(0.75 0 0 0.75 265.7996 41.9952)" class="st8 st9 st10">1</text>
				</g>
			</g>
			<g>
				<defs>
					<polygon id="SVGID_13_" points="0,216 360,216 360,216 360,0 360,0 0,0 					"/>
				</defs>
				<clipPath id="SVGID_14_">
					<use xlink:href="#SVGID_13_"  style="overflow:visible;"/>
				</clipPath>
				<g class="st12">
					<text transform="matrix(0.75 0 0 0.75 6.9963 175.0005)" class="st13 st9 st14">$</text>
					<text transform="matrix(0.75 0 0 0.75 11.9944 175.0005)" class="st13 st9 st14">1</text>
					<text transform="matrix(0.75 0 0 0.75 17.9946 175.0005)" class="st13 st9 st14">,</text>
					<text transform="matrix(0.75 0 0 0.75 19.9927 175.0005)" class="st13 st9 st14">0</text>
					<text transform="matrix(0.75 0 0 0.75 25.9928 175.0005)" class="st13 st9 st14">0</text>
					<text transform="matrix(0.75 0 0 0.75 30.991 175.0005)" class="st13 st9 st14">0</text>
				</g>
			</g>
			<g>
				<defs>
					<polygon id="SVGID_15_" points="0,216 360,216 360,216 360,0 360,0 0,0 					"/>
				</defs>
				<clipPath id="SVGID_16_">
					<use xlink:href="#SVGID_15_"  style="overflow:visible;"/>
				</clipPath>
				<g class="st15">
					<text transform="matrix(0.75 0 0 0.75 6.9963 155.998)" class="st13 st9 st14">$</text>
					<text transform="matrix(0.75 0 0 0.75 11.9944 155.998)" class="st13 st9 st14">2</text>
					<text transform="matrix(0.75 0 0 0.75 17.9946 155.998)" class="st13 st9 st14">,</text>
					<text transform="matrix(0.75 0 0 0.75 19.9927 155.998)" class="st13 st9 st14">0</text>
					<text transform="matrix(0.75 0 0 0.75 25.9928 155.998)" class="st13 st9 st14">0</text>
					<text transform="matrix(0.75 0 0 0.75 30.991 155.998)" class="st13 st9 st14">0</text>
				</g>
			</g>
			<g>
				<defs>
					<polygon id="SVGID_17_" points="0,216 360,216 360,216 360,0 360,0 0,0 					"/>
				</defs>
				<clipPath id="SVGID_18_">
					<use xlink:href="#SVGID_17_"  style="overflow:visible;"/>
				</clipPath>
				<g class="st16">
					<text transform="matrix(0.75 0 0 0.75 6.9963 135.9995)" class="st13 st9 st14">$</text>
					<text transform="matrix(0.75 0 0 0.75 11.9944 135.9995)" class="st13 st9 st14">3</text>
					<text transform="matrix(0.75 0 0 0.75 17.9946 135.9995)" class="st13 st9 st14">,</text>
					<text transform="matrix(0.75 0 0 0.75 19.9927 135.9995)" class="st13 st9 st14">0</text>
					<text transform="matrix(0.75 0 0 0.75 25.9928 135.9995)" class="st13 st9 st14">0</text>
					<text transform="matrix(0.75 0 0 0.75 30.991 135.9995)" class="st13 st9 st14">0</text>
				</g>
			</g>
			<g>
				<defs>
					<polygon id="SVGID_19_" points="0,216 360,216 360,216 360,0 360,0 0,0 					"/>
				</defs>
				<clipPath id="SVGID_20_">
					<use xlink:href="#SVGID_19_"  style="overflow:visible;"/>
				</clipPath>
				<g class="st17">
					<text transform="matrix(0.75 0 0 0.75 6.9963 116.9971)" class="st13 st9 st14">$</text>
					<text transform="matrix(0.75 0 0 0.75 11.9944 116.9971)" class="st13 st9 st14">4</text>
					<text transform="matrix(0.75 0 0 0.75 17.9946 116.9971)" class="st13 st9 st14">,</text>
					<text transform="matrix(0.75 0 0 0.75 19.9927 116.9971)" class="st13 st9 st14">0</text>
					<text transform="matrix(0.75 0 0 0.75 25.9928 116.9971)" class="st13 st9 st14">0</text>
					<text transform="matrix(0.75 0 0 0.75 30.991 116.9971)" class="st13 st9 st14">0</text>
				</g>
			</g>
			<g>
				<defs>
					<polygon id="SVGID_21_" points="0,216 360,216 360,216 360,0 360,0 0,0 					"/>
				</defs>
				<clipPath id="SVGID_22_">
					<use xlink:href="#SVGID_21_"  style="overflow:visible;"/>
				</clipPath>
				<g class="st18">
					<text transform="matrix(0.75 0 0 0.75 6.9963 98.0005)" class="st13 st9 st14">$</text>
					<text transform="matrix(0.75 0 0 0.75 11.9944 98.0005)" class="st13 st9 st14">5</text>
					<text transform="matrix(0.75 0 0 0.75 17.9946 98.0005)" class="st13 st9 st14">,</text>
					<text transform="matrix(0.75 0 0 0.75 19.9927 98.0005)" class="st13 st9 st14">0</text>
					<text transform="matrix(0.75 0 0 0.75 25.9928 98.0005)" class="st13 st9 st14">0</text>
					<text transform="matrix(0.75 0 0 0.75 30.991 98.0005)" class="st13 st9 st14">0</text>
				</g>
			</g>
			<g>
				<defs>
					<polygon id="SVGID_23_" points="0,216 360,216 360,216 360,0 360,0 0,0 					"/>
				</defs>
				<clipPath id="SVGID_24_">
					<use xlink:href="#SVGID_23_"  style="overflow:visible;"/>
				</clipPath>
				<g class="st19">
					<text transform="matrix(0.75 0 0 0.75 6.9963 78.9981)" class="st13 st9 st14">$</text>
					<text transform="matrix(0.75 0 0 0.75 11.9944 78.9981)" class="st13 st9 st14">6</text>
					<text transform="matrix(0.75 0 0 0.75 17.9946 78.9981)" class="st13 st9 st14">,</text>
					<text transform="matrix(0.75 0 0 0.75 19.9927 78.9981)" class="st13 st9 st14">0</text>
					<text transform="matrix(0.75 0 0 0.75 25.9928 78.9981)" class="st13 st9 st14">0</text>
					<text transform="matrix(0.75 0 0 0.75 30.991 78.9981)" class="st13 st9 st14">0</text>
				</g>
			</g>
			<g>
				<defs>
					<polygon id="SVGID_25_" points="0,216 360,216 360,216 360,0 360,0 0,0 					"/>
				</defs>
				<clipPath id="SVGID_26_">
					<use xlink:href="#SVGID_25_"  style="overflow:visible;"/>
				</clipPath>
				<g class="st20">
					<text transform="matrix(0.75 0 0 0.75 6.9963 60.0015)" class="st13 st9 st14">$</text>
					<text transform="matrix(0.75 0 0 0.75 11.9944 60.0015)" class="st13 st9 st14">7</text>
					<text transform="matrix(0.75 0 0 0.75 17.9946 60.0015)" class="st13 st9 st14">,</text>
					<text transform="matrix(0.75 0 0 0.75 19.9927 60.0015)" class="st13 st9 st14">0</text>
					<text transform="matrix(0.75 0 0 0.75 25.9928 60.0015)" class="st13 st9 st14">0</text>
					<text transform="matrix(0.75 0 0 0.75 30.991 60.0015)" class="st13 st9 st14">0</text>
				</g>
			</g>
			<g>
				<defs>
					<polygon id="SVGID_27_" points="0,216 360,216 360,216 360,0 360,0 0,0 					"/>
				</defs>
				<clipPath id="SVGID_28_">
					<use xlink:href="#SVGID_27_"  style="overflow:visible;"/>
				</clipPath>
				<g class="st21">
					<text transform="matrix(0.75 0 0 0.75 6.9963 39.9971)" class="st13 st9 st14">$</text>
					<text transform="matrix(0.75 0 0 0.75 11.9944 39.9971)" class="st13 st9 st14">8</text>
					<text transform="matrix(0.75 0 0 0.75 17.9946 39.9971)" class="st13 st9 st14">,</text>
					<text transform="matrix(0.75 0 0 0.75 19.9927 39.9971)" class="st13 st9 st14">0</text>
					<text transform="matrix(0.75 0 0 0.75 25.9928 39.9971)" class="st13 st9 st14">0</text>
					<text transform="matrix(0.75 0 0 0.75 30.991 39.9971)" class="st13 st9 st14">0</text>
				</g>
			</g>
			<g>
				<defs>
					<polygon id="SVGID_29_" points="0,216 360,216 360,216 360,0 360,0 0,0 					"/>
				</defs>
				<clipPath id="SVGID_30_">
					<use xlink:href="#SVGID_29_"  style="overflow:visible;"/>
				</clipPath>
				<g class="st22">
					<text transform="matrix(0.75 0 0 0.75 79.4082 185.0027)" class="st13 st9 st23">N</text>
					<text transform="matrix(0.75 0 0 0.75 86.4104 185.0027)" class="st13 st9 st23">a</text>
					<text transform="matrix(0.75 0 0 0.75 91.4085 185.0027)" class="st13 st9 st23">t</text>
					<text transform="matrix(0.75 0 0 0.75 94.4086 185.0027)" class="st13 st9 st23">u</text>
					<text transform="matrix(0.75 0 0 0.75 99.4068 185.0027)" class="st13 st9 st23">r</text>
					<text transform="matrix(0.75 0 0 0.75 103.4088 185.0027)" class="st13 st9 st23">a</text>
					<text transform="matrix(0.75 0 0 0.75 108.407 185.0027)" class="st13 st9 st23">l</text>
					<text transform="matrix(0.75 0 0 0.75 113.411 185.0027)" class="st13 st9 st23">G</text>
					<text transform="matrix(0.75 0 0 0.75 119.4112 185.0027)" class="st13 st9 st23">a</text>
					<text transform="matrix(0.75 0 0 0.75 124.4094 185.0027)" class="st13 st9 st23">s</text>
				</g>
			</g>
			<g>
				<defs>
					<polygon id="SVGID_31_" points="0,216 360,216 360,216 360,0 360,0 0,0 					"/>
				</defs>
				<clipPath id="SVGID_32_">
					<use xlink:href="#SVGID_31_"  style="overflow:visible;"/>
				</clipPath>
				<g class="st24">
					<text transform="matrix(0.75 0 0 0.75 224.3904 185.0027)" class="st13 st9 st23">P</text>
					<text transform="matrix(0.75 0 0 0.75 229.3944 185.0027)" class="st13 st9 st23">r</text>
					<text transform="matrix(0.75 0 0 0.75 233.3906 185.0027)" class="st13 st9 st23">o</text>
					<text transform="matrix(0.75 0 0 0.75 238.3946 185.0027)" class="st13 st9 st23">p</text>
					<text transform="matrix(0.75 0 0 0.75 244.3948 185.0027)" class="st13 st9 st23">a</text>
					<text transform="matrix(0.75 0 0 0.75 249.393 185.0027)" class="st13 st9 st23">n</text>
					<text transform="matrix(0.75 0 0 0.75 254.3911 185.0027)" class="st13 st9 st23">e</text>
					<text transform="matrix(0.75 0 0 0.75 261.3932 185.0027)" class="st13 st9 st23">o</text>
					<text transform="matrix(0.75 0 0 0.75 267.3934 185.0027)" class="st13 st9 st23">r</text>
					<text transform="matrix(0.75 0 0 0.75 272.3916 185.0027)" class="st13 st9 st23">O</text>
					<text transform="matrix(0.75 0 0 0.75 279.3937 185.0027)" class="st13 st9 st23">i</text>
					<text transform="matrix(0.75 0 0 0.75 282.3938 185.0027)" class="st13 st9 st23">l</text>
				</g>
			</g>
			<g>
				<defs>
					<polygon id="SVGID_33_" points="0,216 360,216 360,216 360,0 360,0 0,0 					"/>
				</defs>
				<clipPath id="SVGID_34_">
					<use xlink:href="#SVGID_33_"  style="overflow:visible;"/>
				</clipPath>
				<g class="st25">
					<text transform="matrix(0.75 0 0 0.75 142.1754 205.9973)" class="st13 st9 st14">H</text>
					<text transform="matrix(0.75 0 0 0.75 148.7967 205.9973)" class="st13 st9 st14">E</text>
					<text transform="matrix(0.75 0 0 0.75 153.9179 205.9973)" class="st13 st9 st14">A</text>
					<text transform="matrix(0.75 0 0 0.75 160.2814 205.9973)" class="st13 st9 st14">T</text>
					<text transform="matrix(0.75 0 0 0.75 167.8519 205.9973)" class="st13 st9 st14">S</text>
					<text transform="matrix(0.75 0 0 0.75 172.8149 205.9973)" class="st13 st9 st14">O</text>
					<text transform="matrix(0.75 0 0 0.75 179.9166 205.9973)" class="st13 st9 st14">U</text>
					<text transform="matrix(0.75 0 0 0.75 186.7722 205.9973)" class="st13 st9 st14">R</text>
					<text transform="matrix(0.75 0 0 0.75 192.6845 205.9973)" class="st13 st9 st14">C</text>
					<text transform="matrix(0.75 0 0 0.75 198.2393 205.9973)" class="st13 st9 st14">E</text>
				</g>
			</g>
			<g>
				<defs>
					<polygon id="SVGID_35_" points="0,216 360,216 360,216 360,0 360,0 0,0 					"/>
				</defs>
				<clipPath id="SVGID_36_">
					<use xlink:href="#SVGID_35_"  style="overflow:visible;"/>
				</clipPath>
				<g class="st26">
					<text transform="matrix(0.75 0 0 0.75 61.1148 20.0044)" class="st13 st9 st27">S</text>
					<text transform="matrix(0.75 0 0 0.75 67.7361 20.0044)" class="st13 st9 st27">I</text>
					<text transform="matrix(0.75 0 0 0.75 71.4627 20.0044)" class="st13 st9 st27">P</text>
					<text transform="matrix(0.75 0 0 0.75 78.7637 20.0044)" class="st13 st9 st27">s</text>
					<text transform="matrix(0.75 0 0 0.75 87.5178 20.0044)" class="st13 st9 st27">+</text>
					<text transform="matrix(0.75 0 0 0.75 97.6665 20.0044)" class="st13 st9 st27">S</text>
					<text transform="matrix(0.75 0 0 0.75 104.276 20.0044)" class="st13 st9 st27">O</text>
					<text transform="matrix(0.75 0 0 0.75 113.7568 20.0044)" class="st13 st9 st27">L</text>
					<text transform="matrix(0.75 0 0 0.75 119.6631 20.0044)" class="st13 st9 st27">A</text>
					<text transform="matrix(0.75 0 0 0.75 128.1595 20.0044)" class="st13 st9 st27">R</text>
					<text transform="matrix(0.75 0 0 0.75 139.1988 20.0044)" class="st13 st9 st27">S</text>
					<text transform="matrix(0.75 0 0 0.75 145.656 20.0044)" class="st13 st9 st27">A</text>
					<text transform="matrix(0.75 0 0 0.75 153.414 20.0044)" class="st13 st9 st27">V</text>
					<text transform="matrix(0.75 0 0 0.75 161.6994 20.0044)" class="st13 st9 st27">I</text>
					<text transform="matrix(0.75 0 0 0.75 165.426 20.0044)" class="st13 st9 st27">N</text>
					<text transform="matrix(0.75 0 0 0.75 174.6489 20.0044)" class="st13 st9 st27">G</text>
					<text transform="matrix(0.75 0 0 0.75 183.5671 20.0044)" class="st13 st9 st27">S</text>
					<text transform="matrix(0.75 0 0 0.75 193.3525 20.0044)" class="st13 st9 st27">Y</text>
					<text transform="matrix(0.75 0 0 0.75 200.63 20.0044)" class="st13 st9 st27">E</text>
					<text transform="matrix(0.75 0 0 0.75 207.2864 20.0044)" class="st13 st9 st27">A</text>
					<text transform="matrix(0.75 0 0 0.75 215.771 20.0044)" class="st13 st9 st27">R</text>
					<text transform="matrix(0.75 0 0 0.75 226.8221 20.0044)" class="st13 st9 st27">5</text>
				</g>
			</g>
			<path class="st3" d="M1.5,0.5h359l0,0v216l0,0H1.5V0.5z"/>
		</g>
	</g>
</g>
</svg>
